<svg width="57" height="36" viewBox="0 0 57 36" fill="none" xmlns="http://www.w3.org/2000/svg">
<path fill-rule="evenodd" clip-rule="evenodd" d="M0.76903 4.05901C4.37217 -1.04375 19.6148 0.9659 34.8149 8.54827C50.0149 16.1306 59.4162 26.4139 55.814 31.517C52.211 36.62 36.9674 34.6102 21.7671 27.0278C6.56699 19.4453 -2.83387 9.16194 0.76903 4.05901ZM33.2007 10.935C25.5143 7.20486 17.9366 6.14122 16.2759 8.55901C14.6156 10.9769 19.5008 15.9608 27.187 19.6908C34.8732 23.4208 42.45 24.4845 44.1108 22.0668C45.7716 19.649 40.8871 14.6651 33.2007 10.935Z" fill="url(#paint0_linear_177_34)"/>
<path fill-rule="evenodd" clip-rule="evenodd" d="M1.65958 3.53203C4.80423 -2.34244 19.2775 -0.722278 33.9858 7.15117C48.6936 15.0245 58.0674 26.1692 54.9233 32.0437C51.7786 37.9182 37.3062 36.2979 22.5981 28.4246C7.89003 20.5513 -1.48465 9.40657 1.65958 3.53203ZM32.8637 10.1951C25.7051 6.06213 18.6486 4.88339 17.102 7.5623C15.5555 10.2413 20.1046 15.7633 27.2631 19.8963C34.4213 24.029 41.4778 25.2076 43.0248 22.5291C44.5715 19.8502 40.0223 14.3281 32.8637 10.1951Z" fill="black"/>
<defs>
<linearGradient id="paint0_linear_177_34" x1="28.2914" y1="1.23773" x2="28.2914" y2="34.3384" gradientUnits="userSpaceOnUse">
<stop stop-color="#274FFF"/>
<stop offset="1" stop-color="#A700CD"/>
</linearGradient>
</defs>
</svg>
