<svg width="57" height="36" viewBox="0 0 57 36" fill="none" xmlns="http://www.w3.org/2000/svg">
<path d="M0.768829 4.05913C4.37176 -1.04385 19.6154 0.965923 34.8157 8.54839C50.0156 16.1306 59.4169 26.414 55.8147 31.5171C52.2118 36.6201 36.9682 34.6103 21.7679 27.0279C6.56794 19.4455 -2.83364 9.16214 0.768829 4.05913ZM33.2014 10.9351C25.515 7.20495 17.9374 6.14133 16.2766 8.55913C14.6162 10.977 19.5015 15.9609 27.1878 19.691C34.8741 23.421 42.4509 24.4847 44.1116 22.0669C45.7723 19.6491 40.8879 14.6653 33.2014 10.9351Z" fill="url(#paint0_linear_177_35)"/>
<path d="M1.65958 3.53203C4.80423 -2.34244 19.2775 -0.722278 33.9858 7.15117C48.6936 15.0245 58.0674 26.1692 54.9233 32.0437C51.7786 37.9182 37.3062 36.2979 22.5981 28.4246C7.89003 20.5513 -1.48465 9.40657 1.65958 3.53203ZM32.8637 10.1951C25.7051 6.06212 18.6486 4.88339 17.102 7.5623C15.5555 10.2413 20.1046 15.7633 27.2631 19.8963C34.4213 24.029 41.4778 25.2076 43.0248 22.5291C44.5715 19.8502 40.0223 14.3281 32.8637 10.1951Z" fill="white"/>
<defs>
<linearGradient id="paint0_linear_177_35" x1="28.2917" y1="1.23773" x2="28.2917" y2="34.3385" gradientUnits="userSpaceOnUse">
<stop stop-color="#274FFF"/>
<stop offset="1" stop-color="#A700CD"/>
</linearGradient>
</defs>
</svg>
